<svg xmlns="http://www.w3.org/2000/svg" viewBox="0 0 22.79 19.91"><g data-name="Camada 2"><path d="M20.36 1.42a6.9 6.9 0 012.18 3.29 6.42 6.42 0 010 3.53 6.87 6.87 0 01-1.69 3l-7.77 7.96a2.37 2.37 0 01-3.38 0l-7.78-7.91a7 7 0 01-1.69-3 6.23 6.23 0 01.05-3.58 6.59 6.59 0 012.13-3.29A5.79 5.79 0 015.3.09a6.76 6.76 0 013.27.27 7 7 0 012.82 1.73A7 7 0 0114.21.36a6.75 6.75 0 013.27-.27 5.79 5.79 0 012.88 1.33zm-1 8.36a4.88 4.88 0 001.14-2.07 4.33 4.33 0 000-2.42A4.32 4.32 0 0019 3.07a4.13 4.13 0 00-3-.94 4.53 4.53 0 00-3 1.43l-1.61 1.55-1.56-1.55a4.53 4.53 0 00-3-1.43 4.1 4.1 0 00-3 .94A4.47 4.47 0 002.3 7.71a4.86 4.86 0 001.13 2.07l7.82 7.91a.15.15 0 00.27 0z" data-name="Camada 1"/></g></svg>