<svg xmlns="http://www.w3.org/2000/svg" viewBox="0 0 32.65 26.12"><g data-name="Camada 2"><path d="M31.83 18a.79.79 0 01.82.81v1.59a.81.81 0 01-.23.59.82.82 0 01-.59.23h-2.45a4.88 4.88 0 01-4.89 4.9 4.88 4.88 0 01-4.9-4.9h-6.53a4.73 4.73 0 01-1.43 3.47 4.73 4.73 0 01-3.47 1.43 4.75 4.75 0 01-3.47-1.43 4.73 4.73 0 01-1.43-3.47h-.81A2.42 2.42 0 010 18.77V2.45A2.42 2.42 0 012.45 0h16.32a2.42 2.42 0 012.45 2.45V4.9h2.25a2.34 2.34 0 011.73.71l5.1 5.1a2.36 2.36 0 01.7 1.74V18zM8.16 23.67a2.45 2.45 0 100-4.9A2.45 2.45 0 006.43 23a2.33 2.33 0 001.73.67zm16.33 0a2.35 2.35 0 001.73-.67 2.46 2.46 0 000-3.46 2.45 2.45 0 00-3.47 0 2.46 2.46 0 000 3.46 2.37 2.37 0 001.74.67zm4.08-10.61v-.61l-5.1-5.1h-2.25v5.71z" data-name="Camada 1"/></g></svg>