<svg class="svg-sprites" id="skin-sprite" xmlns="http://www.w3.org/2000/svg" xmlns:xlink="http://www.w3.org/1999/xlink">
    <symbol viewBox="0 0 22.76 31.15" id="z-cart" xmlns="http://www.w3.org/2000/svg"><g data-name="Camada 2"><path d="M11.38 0a5.87 5.87 0 00-5.89 5.84v2.73h1.57V5.84a4.32 4.32 0 018.64 0v2.73h1.57V5.84A5.87 5.87 0 0011.38 0zM2 10.12l-2 21h22.76l-2-21z" fill="#efa7b3" data-name="Camada 1"/></g></symbol>
    <symbol viewBox="0 0 25 14.5" id="z-email" xmlns="http://www.w3.org/2000/svg"><g data-name="Camada 2"><path d="M.56 0A.56.56 0 000 .56v13.38a.56.56 0 00.56.56h23.88a.56.56 0 00.56-.56V.56a.56.56 0 00-.56-.56zm.16.56h23.56L12.5 10zm-.16.57l7 5.62-7 6.81zm23.88 0v12.43l-7-6.81zM8 7.1l4.3 3.44a.27.27 0 00.34 0L17 7.1l7.08 6.84H1z" fill="#efa7b3" data-name="Camada 1"/></g></symbol>
    <symbol viewBox="0 0 12.79 19.87" id="z-prev" xmlns="http://www.w3.org/2000/svg"><g data-name="Camada 2"><path d="M.43 8.88a1.51 1.51 0 000 2.12l8.45 8.45a1.51 1.51 0 002.11 0L12.36 18a1.51 1.51 0 000-2.11l-6-6 6-6a1.24 1.24 0 00.43-1 1.43 1.43 0 00-.43-1.06L11 .43a1.51 1.51 0 00-2.11 0z" fill="#efa7b3" data-name="Camada 1"/></g></symbol>
    <symbol viewBox="0 0 12.79 19.87" id="z-next" xmlns="http://www.w3.org/2000/svg"><g data-name="Camada 2"><path d="M12.36 11a1.51 1.51 0 000-2.11L3.91.43A1.47 1.47 0 002.86 0 1.47 1.47 0 001.8.43L.43 1.86A1.45 1.45 0 000 2.92 1.41 1.41 0 00.43 4l6 6-6 6A1.24 1.24 0 000 17a1.43 1.43 0 00.43 1l1.37 1.44a1.43 1.43 0 001.06.43 1.43 1.43 0 001.05-.43z" fill="#efa7b3" data-name="Camada 1"/></g></symbol>
    <symbol viewBox="0 0 32.65 26.12" id="z-truck" xmlns="http://www.w3.org/2000/svg"><g data-name="Camada 2"><path d="M31.83 18a.79.79 0 01.82.81v1.59a.81.81 0 01-.23.59.82.82 0 01-.59.23h-2.45a4.88 4.88 0 01-4.89 4.9 4.88 4.88 0 01-4.9-4.9h-6.53a4.73 4.73 0 01-1.43 3.47 4.73 4.73 0 01-3.47 1.43 4.75 4.75 0 01-3.47-1.43 4.73 4.73 0 01-1.43-3.47h-.81A2.42 2.42 0 010 18.77V2.45A2.42 2.42 0 012.45 0h16.32a2.42 2.42 0 012.45 2.45V4.9h2.25a2.34 2.34 0 011.73.71l5.1 5.1a2.36 2.36 0 01.7 1.74V18zM8.16 23.67a2.45 2.45 0 100-4.9A2.45 2.45 0 006.43 23a2.33 2.33 0 001.73.67zm16.33 0a2.35 2.35 0 001.73-.67 2.46 2.46 0 000-3.46 2.45 2.45 0 00-3.47 0 2.46 2.46 0 000 3.46 2.37 2.37 0 001.74.67zm4.08-10.61v-.61l-5.1-5.1h-2.25v5.71z" data-name="Camada 1"/></g></symbol>
    <symbol viewBox="0 0 22.79 19.91" id="z-heart" xmlns="http://www.w3.org/2000/svg"><g data-name="Camada 2"><path d="M20.36 1.42a6.9 6.9 0 012.18 3.29 6.42 6.42 0 010 3.53 6.87 6.87 0 01-1.69 3l-7.77 7.96a2.37 2.37 0 01-3.38 0l-7.78-7.91a7 7 0 01-1.69-3 6.23 6.23 0 01.05-3.58 6.59 6.59 0 012.13-3.29A5.79 5.79 0 015.3.09a6.76 6.76 0 013.27.27 7 7 0 012.82 1.73A7 7 0 0114.21.36a6.75 6.75 0 013.27-.27 5.79 5.79 0 012.88 1.33zm-1 8.36a4.88 4.88 0 001.14-2.07 4.33 4.33 0 000-2.42A4.32 4.32 0 0019 3.07a4.13 4.13 0 00-3-.94 4.53 4.53 0 00-3 1.43l-1.61 1.55-1.56-1.55a4.53 4.53 0 00-3-1.43 4.1 4.1 0 00-3 .94A4.47 4.47 0 002.3 7.71a4.86 4.86 0 001.13 2.07l7.82 7.91a.15.15 0 00.27 0z" data-name="Camada 1"/></g></symbol>
</svg>