<svg class="svg-sprites" id="skin-sprite" xmlns="http://www.w3.org/2000/svg" xmlns:xlink="http://www.w3.org/1999/xlink">
    <symbol viewBox="0 0 81.44 68.5" id="z-cart"><path d="M32.6 49.7a9.4 9.4 0 109.2 9.6V59a9.2 9.2 0 00-9.1-9.3zm28.7 0a9.4 9.4 0 109.1 9.69V59a9.2 9.2 0 00-9.1-9.3zm17.1-39.2H19.1l-2.6-8.3A3 3 0 0013.7 0H0v6h11.4l11.9 38.2a2.89 2.89 0 002.8 2.1h43.3a3.1 3.1 0 002.9-2.1l9-29.8a3 3 0 00-2.9-3.9z"/></symbol>
    <symbol viewBox="0 0 100 64" id="z-email"><path d="M95 0H29a5 5 0 00-5 5v54a5 5 0 005 5h66a5 5 0 005-5V5a5 5 0 00-5-5zM29 4h66a1 1 0 011 1L62 37 28 5.12A1 1 0 0128.87 4H29zm66 56H29a1 1 0 01-1-1V10.64l32.64 30.8a2 2 0 002.76 0L96 10.64V59a1 1 0 01-1 1zM20 24H0v-4h20zm0 12H4v-4h16zm0 12H8v-4h12z"/></symbol>
    <symbol viewBox="0 0 22.79 19.91" id="z-heart"><path d="M20.36 1.42a6.9 6.9 0 012.18 3.29 6.42 6.42 0 010 3.53 6.87 6.87 0 01-1.69 3l-7.77 7.96a2.37 2.37 0 01-3.38 0l-7.78-7.91a7 7 0 01-1.69-3 6.23 6.23 0 01.05-3.58 6.59 6.59 0 012.13-3.29A5.79 5.79 0 015.3.09a6.76 6.76 0 013.27.27 7 7 0 012.82 1.73A7 7 0 0114.21.36a6.75 6.75 0 013.27-.27 5.79 5.79 0 012.88 1.33zm-1 8.36a4.88 4.88 0 001.14-2.07 4.33 4.33 0 000-2.42A4.32 4.32 0 0019 3.07a4.13 4.13 0 00-3-.94 4.53 4.53 0 00-3 1.43l-1.61 1.55-1.56-1.55a4.53 4.53 0 00-3-1.43 4.1 4.1 0 00-3 .94A4.47 4.47 0 002.3 7.71a4.86 4.86 0 001.13 2.07l7.82 7.91a.15.15 0 00.27 0z"/></symbol>
    <symbol viewBox="0 0 13.99 15.99" id="z-next"><path d="M0 16L.55 0 14 8.48z"/></symbol>
    <symbol viewBox="0 0 13.99 15.99" id="z-prev"><path d="M14 16l-.56-16L0 8.48z"/></symbol>
    <symbol viewBox="0 0 32.65 26.12" id="z-truck"><path d="M31.83 18a.79.79 0 01.82.81v1.59a.81.81 0 01-.23.59.82.82 0 01-.59.23h-2.45a4.88 4.88 0 01-4.89 4.9 4.88 4.88 0 01-4.9-4.9h-6.53a4.73 4.73 0 01-1.43 3.47 4.73 4.73 0 01-3.47 1.43 4.75 4.75 0 01-3.47-1.43 4.73 4.73 0 01-1.43-3.47h-.81A2.42 2.42 0 010 18.77V2.45A2.42 2.42 0 012.45 0h16.32a2.42 2.42 0 012.45 2.45V4.9h2.25a2.34 2.34 0 011.73.71l5.1 5.1a2.36 2.36 0 01.7 1.74V18zM8.16 23.67a2.45 2.45 0 100-4.9A2.45 2.45 0 006.43 23a2.33 2.33 0 001.73.67zm16.33 0a2.35 2.35 0 001.73-.67 2.46 2.46 0 000-3.46 2.45 2.45 0 00-3.47 0 2.46 2.46 0 000 3.46 2.37 2.37 0 001.74.67zm4.08-10.61v-.61l-5.1-5.1h-2.25v5.71z"/></symbol>
</svg>