<svg class="svg-sprites" id="skin-sprite" xmlns="http://www.w3.org/2000/svg" xmlns:xlink="http://www.w3.org/1999/xlink">
    <symbol viewBox="0 0 22.76 31.15" id="z-cart" xmlns="http://www.w3.org/2000/svg"><g data-name="Camada 2"><path d="M11.38 0a5.87 5.87 0 00-5.89 5.84v2.73h1.57V5.84a4.32 4.32 0 018.64 0v2.73h1.57V5.84A5.87 5.87 0 0011.38 0zM2 10.12l-2 21h22.76l-2-21z" data-name="Camada 1"/></g></symbol>
    <symbol viewBox="0 0 25 14.5" id="z-email" xmlns="http://www.w3.org/2000/svg"><g data-name="Camada 2"><path d="M.56 0A.56.56 0 000 .56v13.38a.56.56 0 00.56.56h23.88a.56.56 0 00.56-.56V.56a.56.56 0 00-.56-.56zm.16.56h23.56L12.5 10zm-.16.57l7 5.62-7 6.81zm23.88 0v12.43l-7-6.81zM8 7.1l4.3 3.44a.27.27 0 00.34 0L17 7.1l7.08 6.84H1z" data-name="Camada 1"/></g></symbol>
    <symbol viewBox="0 0 12.79 19.87" id="z-next" xmlns="http://www.w3.org/2000/svg"><g data-name="Camada 2"><path d="M12.36 11a1.51 1.51 0 000-2.11L3.91.43A1.47 1.47 0 002.86 0 1.47 1.47 0 001.8.43L.43 1.86A1.45 1.45 0 000 2.92 1.41 1.41 0 00.43 4l6 6-6 6A1.24 1.24 0 000 17a1.43 1.43 0 00.43 1l1.37 1.44a1.43 1.43 0 001.06.43 1.43 1.43 0 001.05-.43z" data-name="Camada 1"/></g></symbol>
    <symbol viewBox="0 0 12.79 19.87" id="z-prev" xmlns="http://www.w3.org/2000/svg"><g data-name="Camada 2"><path d="M.43 8.88a1.51 1.51 0 000 2.12l8.45 8.45a1.51 1.51 0 002.11 0L12.36 18a1.51 1.51 0 000-2.11l-6-6 6-6a1.24 1.24 0 00.43-1 1.43 1.43 0 00-.43-1.06L11 .43a1.51 1.51 0 00-2.11 0z" data-name="Camada 1"/></g></symbol>
</svg>