<svg xmlns="http://www.w3.org/2000/svg" viewBox="0 0 240.81 41.08"><defs><style>.cls-1{fill:#efa7b3;}.cls-2{fill:#4b3881;}</style></defs><title>beautyshop</title><g id="Camada_2" data-name="Camada 2"><g id="Camada_1-2" data-name="Camada 1"><path class="cls-1" d="M20.54,11.91a10,10,0,0,0-3.11-2.53,8.41,8.41,0,0,0-4-.94A9,9,0,0,0,8.89,9.57a8.69,8.69,0,0,0-3.15,3.19V0H0V31.27H5v-3.9a8.46,8.46,0,0,0,3.17,3.17,9,9,0,0,0,4.58,1.16,9.72,9.72,0,0,0,4.16-.9,10.31,10.31,0,0,0,3.34-2.47,11.44,11.44,0,0,0,2.21-3.66,12.93,12.93,0,0,0,.79-4.54,14.32,14.32,0,0,0-.71-4.5A11.38,11.38,0,0,0,20.54,11.91Zm-3.6,10.83a6.53,6.53,0,0,1-1.26,2.1,6.19,6.19,0,0,1-2,1.44,6.07,6.07,0,0,1-2.53.53,5.27,5.27,0,0,1-1.67-.28,6.16,6.16,0,0,1-1.59-.77,6.27,6.27,0,0,1-1.3-1.17A4.76,4.76,0,0,1,5.74,23V17.69a8.45,8.45,0,0,1,2.33-3.11,5.28,5.28,0,0,1,3.45-1.26,5.07,5.07,0,0,1,2.36.56,6.09,6.09,0,0,1,1.86,1.5A6.64,6.64,0,0,1,17,17.56a7.85,7.85,0,0,1,.43,2.61A7.23,7.23,0,0,1,16.94,22.74ZM46.19,11.91a11.23,11.23,0,0,0-3.68-2.53,12.13,12.13,0,0,0-4.9-.94,12.45,12.45,0,0,0-5,.94,11.33,11.33,0,0,0-3.75,2.55,10.89,10.89,0,0,0-2.35,3.73,12.32,12.32,0,0,0-.82,4.51,11.78,11.78,0,0,0,.84,4.42,11,11,0,0,0,6.1,6.19,12.52,12.52,0,0,0,4.88.92,12.25,12.25,0,0,0,6.49-1.65,9.94,9.94,0,0,0,4-4.22l-4.92-1.37A4.41,4.41,0,0,1,41,26.66a6.57,6.57,0,0,1-3.23.84,5.93,5.93,0,0,1-2.14-.39,5.67,5.67,0,0,1-3.17-2.87,6.57,6.57,0,0,1-.65-2.35H49.17a4.64,4.64,0,0,0,.11-.86c0-.34,0-.7,0-1.07a12.25,12.25,0,0,0-.79-4.37A10.61,10.61,0,0,0,46.19,11.91ZM31.74,18.16a6.23,6.23,0,0,1,.58-2.27,5.94,5.94,0,0,1,1.26-1.76,5.93,5.93,0,0,1,8,0,6,6,0,0,1,1.86,4.05ZM72,24.67v-7q0-4.5-2.67-6.87c-1.79-1.59-4.29-2.38-7.52-2.38a16.54,16.54,0,0,0-9.34,2.87L54.27,15a16.39,16.39,0,0,1,3.51-1.89,10.09,10.09,0,0,1,3.51-.64A5.25,5.25,0,0,1,65,13.62a4.51,4.51,0,0,1,1.26,3.43v1.28a12.73,12.73,0,0,0-2.54-.73,16.83,16.83,0,0,0-2.94-.25,13.37,13.37,0,0,0-3.85.53,9.78,9.78,0,0,0-3,1.48,6.64,6.64,0,0,0-2,2.29,6.26,6.26,0,0,0-.71,2.94,6.71,6.71,0,0,0,.58,2.82,6.9,6.9,0,0,0,1.6,2.25,7.41,7.41,0,0,0,2.45,1.5,8.42,8.42,0,0,0,3,.54,10.55,10.55,0,0,0,4.58-1,10,10,0,0,0,3.64-3l.13,1.24a3.16,3.16,0,0,0,1.09,1.93,3.87,3.87,0,0,0,2.51.73,12.73,12.73,0,0,0,2.52-.3V26.38a1.42,1.42,0,0,1-1-.42A2.07,2.07,0,0,1,72,24.67ZM66.3,24a2,2,0,0,1-.94,1.62,4.86,4.86,0,0,1-2,1.37,7.34,7.34,0,0,1-2.77.52,4,4,0,0,1-2.74-1,3.05,3.05,0,0,1-1.11-2.42,3,3,0,0,1,1.41-2.54,6.16,6.16,0,0,1,3.64-1,11.8,11.8,0,0,1,2.32.24,12.83,12.83,0,0,1,2.22.62Zm31.87.68V8.82H92.43V22.74a7.22,7.22,0,0,1-2.55,3.07,5.89,5.89,0,0,1-3.23,1c-2.49,0-3.73-1.72-3.73-5.18V8.82H77.18V22.87c0,2.92.6,5.11,1.8,6.6a6.4,6.4,0,0,0,5.27,2.23,11.59,11.59,0,0,0,5.18-1.16,9.59,9.59,0,0,0,3.86-3.47l.13,1.8a2.77,2.77,0,0,0,1.13,1.95,4.14,4.14,0,0,0,2.51.7c.31,0,.66,0,1,0a13.37,13.37,0,0,0,1.43-.21V26.38A1.42,1.42,0,0,1,98.49,26,2.07,2.07,0,0,1,98.17,24.67Zm16.62,1.41a5.29,5.29,0,0,1-1.76.3,2.37,2.37,0,0,1-1.52-.49,2.05,2.05,0,0,1-.62-1.69v-11h4.71V8.82h-4.71V1.54h-5.74V8.82h-3v4.42h3V26.13a6.28,6.28,0,0,0,.47,2.55,4.73,4.73,0,0,0,1.27,1.71,5,5,0,0,0,1.84,1,8.16,8.16,0,0,0,2.25.3,11.92,11.92,0,0,0,3.51-.51,25.86,25.86,0,0,0,2.83-1l-1.16-4.54C115.82,25.71,115.36,25.89,114.79,26.08ZM130,26.3,123.87,8.82H118l8.87,22.45c-.29.94-.56,1.72-.82,2.35a7.38,7.38,0,0,1-.77,1.48,2.14,2.14,0,0,1-.86.75,2.45,2.45,0,0,1-1,.21,7.77,7.77,0,0,1-1.16-.1,10.92,10.92,0,0,1-1.41-.32v5a8.72,8.72,0,0,0,1.47.36,9.54,9.54,0,0,0,1.4.11,7.83,7.83,0,0,0,4.88-1.5,8.05,8.05,0,0,0,2.78-3.86l9.43-26.9h-5.4Z"/><path class="cls-2" d="M160,20.48a10.6,10.6,0,0,0-2.7-1.37q-1.65-.6-4-1.2c-.83-.2-1.52-.4-2.07-.58a7.44,7.44,0,0,1-1.35-.58,2,2,0,0,1-.75-.69,1.8,1.8,0,0,1-.24-1,2.08,2.08,0,0,1,1-1.93,4.6,4.6,0,0,1,2.44-.6,9.09,9.09,0,0,1,3.19.6A13.35,13.35,0,0,1,158.83,15l2.31-3.47a11.57,11.57,0,0,0-4-2.36,15.17,15.17,0,0,0-4.73-.73,11.15,11.15,0,0,0-3.49.52,8.64,8.64,0,0,0-2.81,1.47,6.8,6.8,0,0,0-1.86,2.34,7,7,0,0,0-.66,3.08A5.31,5.31,0,0,0,144,18.1a4.48,4.48,0,0,0,1.38,1.63A9.37,9.37,0,0,0,147.82,21c1,.37,2.27.76,3.73,1.16a25.06,25.06,0,0,1,3.77,1.28,1.84,1.84,0,0,1,1.15,1.76,2.08,2.08,0,0,1-1,1.84,4.9,4.9,0,0,1-2.7.64,10.73,10.73,0,0,1-3.88-.75,18.4,18.4,0,0,1-4-2.2l-2.14,3.59a13.3,13.3,0,0,0,4.62,2.57,17.36,17.36,0,0,0,5.53.9,10.53,10.53,0,0,0,6.64-1.9A6.27,6.27,0,0,0,162,24.67a5.44,5.44,0,0,0-.5-2.42A4.75,4.75,0,0,0,160,20.48Z"/><path class="cls-2" d="M185.21,11.27a5.66,5.66,0,0,0-2.14-2,7.48,7.48,0,0,0-3.55-.74,9.52,9.52,0,0,0-4.69,1.17,8.66,8.66,0,0,0-3.37,3.37V.09h-5.74V31.36h5.74V18.25a5.9,5.9,0,0,1,.95-1.89,7.9,7.9,0,0,1,1.41-1.47,6.22,6.22,0,0,1,1.63-1,4.32,4.32,0,0,1,1.62-.34,3.34,3.34,0,0,1,2.79,1.26,6.42,6.42,0,0,1,1,3.92v12.6h5.74v-14a17.57,17.57,0,0,0-.3-3.26A8,8,0,0,0,185.21,11.27Z"/><path class="cls-2" d="M210.55,12a11.17,11.17,0,0,0-3.69-2.55,12.1,12.1,0,0,0-4.9-.94,12.31,12.31,0,0,0-4.93.94,11.11,11.11,0,0,0-3.7,2.55,11.24,11.24,0,0,0-2.34,3.7,12.3,12.3,0,0,0-.81,4.46,12.15,12.15,0,0,0,.81,4.41,11.24,11.24,0,0,0,2.34,3.7,11.11,11.11,0,0,0,3.7,2.55,13.4,13.4,0,0,0,9.86,0,10.92,10.92,0,0,0,3.68-2.55,11.33,11.33,0,0,0,2.31-3.7,12.16,12.16,0,0,0,.82-4.41,12.3,12.3,0,0,0-.82-4.46A11.22,11.22,0,0,0,210.55,12Zm-3.17,10.85A6.77,6.77,0,0,1,206.14,25a5.55,5.55,0,0,1-1.87,1.39,5.69,5.69,0,0,1-4.62,0A5.55,5.55,0,0,1,197.78,25a6.66,6.66,0,0,1-1.24-2.12,8.39,8.39,0,0,1,0-5.42,6.54,6.54,0,0,1,1.24-2.14,5.77,5.77,0,0,1,1.87-1.42,5.28,5.28,0,0,1,2.31-.51,5.41,5.41,0,0,1,2.31.49,5.55,5.55,0,0,1,1.87,1.39,6.83,6.83,0,0,1,1.24,2.14,8.45,8.45,0,0,1,0,5.44Z"/><path class="cls-2" d="M240,15.61a11.57,11.57,0,0,0-2.19-3.68,10.33,10.33,0,0,0-3.32-2.48,9.5,9.5,0,0,0-4.2-.92,8.92,8.92,0,0,0-4.54,1.13,9.18,9.18,0,0,0-3.21,3.11V8.91h-5V40.48h5.74V27.41a8.38,8.38,0,0,0,3.08,3.2A8.92,8.92,0,0,0,231,31.78a8.68,8.68,0,0,0,3.94-.9,9.54,9.54,0,0,0,3.11-2.48,11.86,11.86,0,0,0,2-3.73,14.23,14.23,0,0,0,.73-4.58A12.92,12.92,0,0,0,240,15.61Zm-5.51,7.05a6.68,6.68,0,0,1-1.2,2.18,5.65,5.65,0,0,1-1.86,1.5,5.06,5.06,0,0,1-2.38.56,5.36,5.36,0,0,1-3.42-1.26,7.65,7.65,0,0,1-2.36-3.19V17.18a5,5,0,0,1,.88-1.5,6.72,6.72,0,0,1,1.3-1.2,5.91,5.91,0,0,1,1.59-.79,5.27,5.27,0,0,1,1.67-.28,5.92,5.92,0,0,1,4.43,1.93,6.53,6.53,0,0,1,1.31,2.12,7.31,7.31,0,0,1,.47,2.63A7.7,7.7,0,0,1,234.51,22.66Z"/></g></g></svg>